<?xml version="1.0" encoding="UTF-8"?>
<svg id="Layer_1" data-name="Layer 1" xmlns="http://www.w3.org/2000/svg" viewBox="0 0 267.09 97.62">
  <defs>
    <style>
      .cls-1 {
        fill: #643881;
      }

      .cls-1, .cls-2, .cls-3, .cls-4, .cls-5, .cls-6, .cls-7 {
        stroke-width: 0px;
      }

      .cls-2 {
        fill: #272c33;
      }

      .cls-3 {
        fill: #37b34a;
      }

      .cls-4 {
        fill: #432a74;
      }

      .cls-5 {
        fill: #be1e2d;
      }

      .cls-6 {
        fill: #ed4243;
      }

      .cls-7 {
        fill: #f48120;
      }
    </style>
  </defs>
  <path class="cls-5" d="M71.83,34.37v-8.57h-8.57c-6.33,0-11.45,5.13-11.45,11.46v8.57h8.57c6.33,0,11.45-5.13,11.45-11.45"/>
  <path class="cls-7" d="M51.81,45.82v-8.57c0-6.33,5.13-11.46,11.45-11.46h8.57v-14.34c0-6.33-5.13-11.45-11.45-11.45h-22.91c-6.32,0-11.46,5.13-11.46,11.46v22.91c0,6.33,5.13,11.46,11.46,11.45"/>
  <path class="cls-4" d="M45.82,60.38v-8.57h-8.57c-6.33,0-11.46,5.13-11.46,11.45v8.57h8.57c6.33,0,11.46-5.13,11.46-11.46"/>
  <path class="cls-1" d="M37.46,45.82c-6.32,0-11.46-5.13-11.46-11.45v-8.36h-14.55c-6.32,0-11.46,5.13-11.46,11.46v22.91c0,6.33,5.13,11.46,11.46,11.46h14.34v-8.57c0-6.33,5.13-11.45,11.46-11.45h8.57v-5.99h-8.36Z"/>
  <path class="cls-3" d="M25.8,86.17c0,6.32,5.13,11.45,11.46,11.45h22.91c6.33,0,11.45-5.13,11.45-11.45v-22.91c0-6.33-5.13-11.45-11.45-11.45h-14.34v8.57c0,6.33-5.13,11.46-11.46,11.46h-8.57"/>
  <path class="cls-6" d="M86.17,25.79h-14.34v8.57c0,6.33-5.13,11.46-11.45,11.46h-8.57s0,5.99,0,5.99h8.35c6.33,0,11.45,5.13,11.45,11.45v8.36h14.56c6.33,0,11.46-5.13,11.46-11.46v-22.91c0-6.33-5.13-11.46-11.46-11.46Z"/>
  <g>
    <path class="cls-2" d="M122.44,53.37c-.04,6.12-2.38,9.85-9.09,9.85-4.09,0-8.14-1.83-8.5-6.2h2.5c.56,3.02,3.22,4.09,6,4.09,4.61,0,6.59-2.74,6.59-7.75v-2.78h-.08c-1.15,2.5-3.58,4.21-6.52,4.21-6.55,0-9.26-4.69-9.26-10.53s3.34-10.33,9.26-10.33c2.98,0,5.52,1.87,6.52,4.13h.08v-3.53h2.5v18.83ZM119.94,44.55c0-4.01-1.87-8.5-6.59-8.5s-6.75,4.25-6.75,8.5,2.14,8.14,6.75,8.14c4.33,0,6.59-3.97,6.59-8.14"/>
    <rect class="cls-2" x="124.43" y="26.67" width="2.5" height="28.36"/>
    <path class="cls-2" d="M148.33,44.79c0,5.88-3.42,10.85-9.69,10.85s-9.69-4.97-9.69-10.85,3.42-10.84,9.69-10.84,9.69,4.96,9.69,10.84M131.44,44.79c0,4.37,2.38,8.74,7.19,8.74s7.19-4.37,7.19-8.74-2.38-8.74-7.19-8.74-7.19,4.37-7.19,8.74"/>
    <path class="cls-2" d="M149.81,26.67h2.5v11.76h.08c1.07-2.94,4.05-4.49,7.11-4.49,6.24,0,9.22,5.04,9.22,10.84s-2.98,10.85-9.22,10.85c-3.3,0-6.16-1.71-7.31-4.49h-.08v3.89h-2.3v-28.36ZM159.5,36.05c-5.32,0-7.19,4.49-7.19,8.74s1.87,8.74,7.19,8.74c4.77,0,6.71-4.49,6.71-8.74s-1.95-8.74-6.71-8.74"/>
    <path class="cls-2" d="M170.5,40.81c.24-4.81,3.62-6.87,8.3-6.87,3.61,0,7.54,1.11,7.54,6.59v10.89c0,.95.48,1.51,1.47,1.51.28,0,.6-.08.79-.16v2.11c-.56.12-.95.16-1.63.16-2.55,0-2.94-1.43-2.94-3.57h-.08c-1.75,2.66-3.54,4.17-7.47,4.17s-6.87-1.87-6.87-6c0-5.76,5.6-5.96,11-6.6,2.06-.24,3.22-.51,3.22-2.78,0-3.37-2.43-4.21-5.36-4.21-3.1,0-5.4,1.43-5.48,4.77h-2.5ZM183.85,43.83h-.08c-.32.6-1.43.79-2.1.91-4.25.75-9.53.71-9.53,4.73,0,2.5,2.22,4.05,4.57,4.05,3.82,0,7.19-2.42,7.15-6.43v-3.26Z"/>
    <rect class="cls-2" x="189.77" y="26.67" width="2.5" height="28.36"/>
    <polygon class="cls-2" points="219.15 55.03 213.35 55.03 209.7 41.25 209.61 41.25 206.12 55.03 200.28 55.03 193.77 34.5 199.73 34.5 203.5 48.44 203.58 48.44 207 34.5 212.48 34.5 215.98 48.4 216.05 48.4 219.83 34.5 225.63 34.5 219.15 55.03"/>
    <path class="cls-2" d="M230.15,46.14c.15,3.58,1.91,5.2,5.04,5.2,2.27,0,4.09-1.39,4.45-2.66h4.96c-1.59,4.85-4.96,6.91-9.61,6.91-6.48,0-10.49-4.45-10.49-10.81s4.25-10.84,10.49-10.84c6.99,0,10.37,5.88,9.97,12.19h-14.81ZM239.32,42.56c-.51-2.86-1.75-4.37-4.49-4.37-3.57,0-4.6,2.78-4.68,4.37h9.17Z"/>
    <path class="cls-2" d="M246.4,26.67h5.64v10.33h.08c1.39-2.11,3.93-3.06,6.47-3.06,4.09,0,8.5,3.3,8.5,10.8s-4.41,10.85-8.5,10.85c-3.02,0-5.52-.92-6.75-3.18h-.08v2.62h-5.36v-28.36ZM256.64,38.19c-3.34,0-4.81,3.14-4.81,6.59s1.47,6.55,4.81,6.55,4.81-3.14,4.81-6.55-1.47-6.59-4.81-6.59"/>
  </g>
</svg>